<svg xmlns="http://www.w3.org/2000/svg" width="69" height="12" fill="none"><g clip-path="url(#a)"><path fill="#69B99D" d="M8.546 10.22a.5.5 0 0 1-.224-.054l-2.482-1.3-2.482 1.3a.486.486 0 0 1-.706-.516l.487-2.74-2.005-1.946a.49.49 0 0 1-.122-.487.49.49 0 0 1 .395-.33l2.774-.405 1.221-2.496a.487.487 0 0 1 .876 0l1.236 2.491 2.774.404a.49.49 0 0 1 .394.331.49.49 0 0 1-.121.487L8.556 6.906l.486 2.74a.49.49 0 0 1-.194.486.5.5 0 0 1-.302.088"/></g><g clip-path="url(#b)"><path fill="#69B99D" d="M22.821 10.22a.5.5 0 0 1-.224-.054l-2.482-1.299-2.481 1.3a.486.486 0 0 1-.706-.516l.486-2.74-2.005-1.947a.49.49 0 0 1-.121-.487.49.49 0 0 1 .394-.33l2.774-.404 1.221-2.497a.487.487 0 0 1 .877 0l1.236 2.492 2.774.404a.49.49 0 0 1 .394.33.49.49 0 0 1-.122.487l-2.005 1.947.487 2.74a.49.49 0 0 1-.195.486.5.5 0 0 1-.302.088"/></g><g clip-path="url(#c)"><path fill="#69B99D" d="M37.097 10.22a.5.5 0 0 1-.224-.054l-2.482-1.3-2.482 1.3a.486.486 0 0 1-.706-.516l.487-2.74-2.005-1.946a.49.49 0 0 1-.122-.487.49.49 0 0 1 .394-.33l2.774-.405 1.222-2.496a.487.487 0 0 1 .876 0l1.236 2.491 2.774.404a.49.49 0 0 1 .394.331.49.49 0 0 1-.121.487l-2.006 1.946.487 2.74a.49.49 0 0 1-.195.487.5.5 0 0 1-.301.088"/></g><g clip-path="url(#d)"><path fill="#69B99D" d="M51.372 10.22a.5.5 0 0 1-.224-.054l-2.482-1.3-2.482 1.3a.486.486 0 0 1-.705-.516l.486-2.74-2.005-1.946a.49.49 0 0 1-.121-.487.49.49 0 0 1 .394-.33l2.774-.405 1.221-2.496a.487.487 0 0 1 .876 0l1.236 2.491 2.774.404a.49.49 0 0 1 .395.331.49.49 0 0 1-.122.487l-2.005 1.947.486 2.74a.49.49 0 0 1-.194.486.5.5 0 0 1-.302.088"/></g><g clip-path="url(#e)"><path fill="#69B99D" d="M65.648 10.22a.5.5 0 0 1-.224-.054l-2.482-1.3-2.482 1.3a.487.487 0 0 1-.706-.516l.487-2.74-2.005-1.946a.49.49 0 0 1-.122-.487.49.49 0 0 1 .394-.33l2.774-.405 1.222-2.496a.487.487 0 0 1 .876 0l1.236 2.492 2.774.403a.49.49 0 0 1 .394.331.49.49 0 0 1-.122.487l-2.005 1.947.487 2.74a.49.49 0 0 1-.195.486.5.5 0 0 1-.302.088"/></g><defs><clipPath id="a"><path fill="#fff" d="M0 0h11.68v11.68H0z"/></clipPath><clipPath id="b"><path fill="#fff" d="M14.275 0h11.68v11.68h-11.68z"/></clipPath><clipPath id="c"><path fill="#fff" d="M28.55 0h11.68v11.68H28.55z"/></clipPath><clipPath id="d"><path fill="#fff" d="M42.826 0h11.68v11.68h-11.68z"/></clipPath><clipPath id="e"><path fill="#fff" d="M57.102 0h11.68v11.68h-11.68z"/></clipPath></defs></svg>