<svg xmlns="http://www.w3.org/2000/svg" width="30" height="30" fill="none"><path fill="#69B99D" d="M10.152 4.322a1.61 1.61 0 0 1 1.745.869q.116.176.184.376c.198 3.06.41 6.07.609 9.08-.005.313.044.624.145.92.237.585.827.955 1.467.921l9.714-.621.066.025c.417.007.815.176 1.104.47.29.295.449.69.442 1.1-.383 5.58-4.472 10.242-10.037 11.444-5.565 1.2-11.27-1.348-14.003-6.255a12 12 0 0 1-1.493-4.58 9 9 0 0 1-.093-1.44c.019-5.933 4.242-11.055 10.15-12.31m5.776-4.32c6.67.2 12.245 5.044 13.256 11.519a.4.4 0 0 1 0 .116c.021.306-.083.609-.289.84a1.19 1.19 0 0 1-.81.392l-11.206.74a1.34 1.34 0 0 1-1.013-.336 1.29 1.29 0 0 1-.428-.961l-.753-11.013v-.182a1.16 1.16 0 0 1 .385-.81c.233-.21.542-.32.858-.306"/></svg>