<svg xmlns="http://www.w3.org/2000/svg" width="36" height="36" fill="none"><path fill="#69B99D" fill-rule="evenodd" d="M23.13 3.65c.921 0 1.84.13 2.715.424 5.386 1.752 7.327 7.665 5.706 12.834a18.6 18.6 0 0 1-4.391 7.02 56 56 0 0 1-9.24 7.242l-.365.22-.379-.235a55.6 55.6 0 0 1-9.295-7.241 18.9 18.9 0 0 1-4.394-7.007C1.838 11.74 3.78 5.827 9.224 4.044c.423-.146.86-.249 1.297-.306h.175q.615-.089 1.226-.087h.16a9.1 9.1 0 0 1 2.673.482h.086a.5.5 0 0 1 .131.086c.323.103.628.22.92.38l.554.249c.134.072.285.18.415.275.082.06.156.114.213.148l.072.043c.125.073.256.15.366.233a9.14 9.14 0 0 1 5.618-1.896m3.882 10.513a1.2 1.2 0 0 0 1.153-1.111v-.174c.044-2.046-1.195-3.898-3.08-4.614a1.17 1.17 0 0 0-1.473.73 1.194 1.194 0 0 0 .73 1.503c.935.35 1.561 1.271 1.561 2.292v.045c-.028.335.073.657.277.905s.511.393.832.424" clip-rule="evenodd"/></svg>