<svg xmlns="http://www.w3.org/2000/svg" width="36" height="36" fill="none"><path fill="#69B99D" fill-rule="evenodd" d="M5.107 15.064c0-6.716 5.61-12.144 12.396-12.144 6.804 0 12.414 5.428 12.414 12.144 0 3.384-1.23 6.526-3.255 9.189a32.2 32.2 0 0 1-8.087 7.505c-.709.464-1.35.5-2.128 0a31.6 31.6 0 0 1-8.084-7.505c-2.027-2.663-3.256-5.805-3.256-9.19m8.31.378c0 2.25 1.835 4.019 4.086 4.019s4.104-1.77 4.104-4.02c0-2.231-1.853-4.087-4.104-4.087-2.25 0-4.086 1.856-4.086 4.088" clip-rule="evenodd"/></svg>