<svg xmlns="http://www.w3.org/2000/svg" width="36" height="36" fill="none"><path fill="#69B99D" d="M16.55 3.075a2.76 2.76 0 0 1 1.795-.01l9.686 3.252c1.085.362 1.818 1.359 1.824 2.475l.062 9.696a12.04 12.04 0 0 1-3.014 8.022c-.902 1.025-2.058 1.906-3.535 2.693l-5.207 2.785a1.115 1.115 0 0 1-1.046.006l-5.255-2.72c-1.492-.775-2.659-1.643-3.57-2.654a12.05 12.05 0 0 1-3.121-7.99l-.062-9.69c-.005-1.117.715-2.12 1.793-2.497zm6.427 10.384a1.124 1.124 0 0 0-1.559.009l-4.916 4.848-2.013-1.936a1.123 1.123 0 0 0-1.558.01 1.053 1.053 0 0 0 .01 1.517l2.796 2.692c.218.209.5.312.782.31a1.1 1.1 0 0 0 .777-.32l5.69-5.612a1.055 1.055 0 0 0-.009-1.518"/></svg>