<svg xmlns="http://www.w3.org/2000/svg" width="36" height="36" fill="none"><path fill="#69B99D" d="M26.15 20.907a1.6 1.6 0 0 0-.466 1.416l1.297 7.183a1.58 1.58 0 0 1-.656 1.577c-.5.365-1.163.409-1.708.117l-6.463-3.373a1.65 1.65 0 0 0-.73-.19h-.395q-.209.03-.395.13l-6.465 3.39c-.32.16-.681.217-1.036.16a1.623 1.623 0 0 1-1.299-1.856l1.3-7.183a1.63 1.63 0 0 0-.466-1.43l-5.27-5.11a1.58 1.58 0 0 1-.393-1.649c.196-.578.695-1 1.298-1.095l7.253-1.053a1.62 1.62 0 0 0 1.284-.889l3.196-6.555a1.5 1.5 0 0 1 .292-.394L16.459 4a1 1 0 0 1 .235-.19l.16-.059.248-.102h.614A1.63 1.63 0 0 1 19 4.526l3.238 6.526c.234.478.688.81 1.212.89l7.253 1.052a1.66 1.66 0 0 1 1.328 1.095 1.59 1.59 0 0 1-.423 1.65z"/></svg>