<svg width="18" height="18" viewBox="0 0 18 18" fill="none" xmlns="http://www.w3.org/2000/svg">
<path fill-rule="evenodd" clip-rule="evenodd" d="M4.9035 0H12.4014C15.3332 0 17.2963 2.05911 17.2963 5.12183V12.1912C17.2963 15.2444 15.3332 17.3035 12.4014 17.3035H4.9035C1.97178 17.3035 0 15.2444 0 12.1912V5.12183C0 2.05911 1.97178 0 4.9035 0ZM8.15521 11.2386L12.2631 7.12903C12.5571 6.83487 12.5571 6.35902 12.2631 6.05621C11.969 5.76205 11.4847 5.76205 11.1907 6.05621L7.61902 9.62938L6.10559 8.11533C5.81156 7.82117 5.32726 7.82117 5.03322 8.11533C4.73919 8.40948 4.73919 8.88533 5.03322 9.18814L7.09148 11.2386C7.2385 11.3857 7.42876 11.4549 7.61902 11.4549C7.81793 11.4549 8.00819 11.3857 8.15521 11.2386Z" fill="#69B99D"/>
</svg>
