<svg xmlns="http://www.w3.org/2000/svg" width="36" height="36" fill="none"><path fill="#69B99D" d="M26.059 4.38c3.333 0 6.046 2.689 6.046 5.993l.001 3.91c0 .286-.115.563-.319.766a1.1 1.1 0 0 1-.775.318 2.166 2.166 0 0 0-2.173 2.154c0 1.188.975 2.154 2.173 2.154a1.09 1.09 0 0 1 1.094 1.085v3.908c0 3.304-2.711 5.991-6.045 5.991H8.965c-3.333 0-6.046-2.687-6.046-5.991V20.76c0-.599.49-1.085 1.095-1.085 1.2 0 2.173-.966 2.173-2.154 0-1.157-.934-2.028-2.173-2.028-.29 0-.568-.114-.774-.318a1.08 1.08 0 0 1-.321-.767l.003-4.035c0-3.304 2.712-5.993 6.045-5.993zm-8.546 7.524c-.412 0-.783.229-.968.596l-1.064 2.137-2.373.342c-.41.058-.746.337-.876.727-.128.39-.024.812.274 1.099l1.72 1.66-.406 2.349c-.07.404.095.807.431 1.048a1.082 1.082 0 0 0 1.134.08l2.128-1.108 2.123 1.105a1.07 1.07 0 0 0 1.138-.078c.337-.24.502-.643.432-1.047l-.407-2.348 1.72-1.661c.3-.287.404-.709.274-1.099a1.07 1.07 0 0 0-.87-.726l-2.377-.343L18.48 12.5a1.08 1.08 0 0 0-.965-.597z"/></svg>